<svg width="34" height="34" viewBox="0 0 34 34" fill="none" xmlns="http://www.w3.org/2000/svg">
<path d="M17 32C25.2843 32 32 25.2843 32 17C32 8.71573 25.2843 2 17 2C8.71573 2 2 8.71573 2 17C2 25.2843 8.71573 32 17 32Z" fill="white"/>
<g clip-path="url(#clip0_12_51)">
<path d="M15.1867 0.124672C9.21358 0.748006 3.87649 4.68045 1.45025 10.2453C-0.1133 13.838 -0.373513 17.9747 0.7367 21.7829C2.10803 26.5313 5.65537 30.5431 10.2454 32.5496C13.838 34.1131 17.9747 34.3733 21.7832 33.2631C27.4834 31.6198 31.9716 26.9396 33.4449 21.1251C35.7451 12.0133 30.1014 2.69666 20.9667 0.521339C18.9602 0.045339 17.1932 -0.0795543 15.1867 0.124672ZM15.4134 10.6533C16.8636 12.58 18.088 14.1667 18.1334 14.1667C18.1787 14.1667 19.6865 12.58 21.4654 10.6533L24.718 7.14001H26.5654L26.1687 7.55979C25.942 7.79689 24.4687 9.39511 22.8934 11.1067C21.318 12.818 19.7767 14.4836 19.4702 14.79L18.9267 15.368L23.1767 21.0233C25.5114 24.14 27.4267 26.7236 27.4267 26.7698C27.4267 26.8265 26.0332 26.86 24.3436 26.86L21.25 26.8487L18.3714 22.9953C16.388 20.332 15.4587 19.1867 15.368 19.2553C15.3 19.312 13.6902 21.0465 11.7867 23.1087L8.33003 26.86H7.45691C6.97003 26.86 6.57337 26.8369 6.57337 26.8033C6.57337 26.7698 8.37537 24.7969 10.5736 22.4287C12.7616 20.06 14.5749 18.0767 14.5969 18.0431C14.6087 17.9969 12.8067 15.538 10.5967 12.58C8.3867 9.63334 6.57337 7.19667 6.57337 7.17355C6.57337 7.15157 7.96691 7.14001 9.6787 7.14001H12.7836L15.4134 10.6533Z" fill="black"/>
<path d="M9.37313 8.65867C9.41824 8.738 12.2736 12.5687 15.6967 17.1469L21.93 25.4884L23.3236 25.5C24.1851 25.5 24.7067 25.4547 24.6836 25.3867C24.6731 25.33 21.8282 21.4998 18.3831 16.8867L12.1036 8.5H10.6987C9.5318 8.5 9.29335 8.52312 9.37313 8.65867Z" fill="black"/>
</g>
<defs>
<clipPath id="clip0_12_51">
<rect width="34" height="34" fill="white"/>
</clipPath>
</defs>
</svg>
