<svg width="34" height="34" viewBox="0 0 34 34" fill="none" xmlns="http://www.w3.org/2000/svg">
<g clip-path="url(#clip0_12_44)">
<path d="M17 34C26.3888 34 34 26.3888 34 17C34 7.61116 26.3888 0 17 0C7.61116 0 0 7.61116 0 17C0 26.3888 7.61116 34 17 34Z" fill="url(#paint0_linear_12_44)"/>
<path d="M11.5073 18.2427L13.5242 23.8252C13.5242 23.8252 13.7764 24.3475 14.0464 24.3475C14.3164 24.3475 18.3325 20.1695 18.3325 20.1695L22.7986 11.5434L11.5793 16.8017L11.5073 18.2427Z" fill="#C8DAEA"/>
<path d="M14.1818 19.6744L13.7946 23.7892C13.7946 23.7892 13.6326 25.0501 14.8931 23.7892C16.1537 22.5284 17.3602 21.5561 17.3602 21.5561" fill="#A9C6D8"/>
<path d="M11.5438 18.4419L7.39495 17.0901C7.39495 17.0901 6.89912 16.8889 7.05878 16.4328C7.09164 16.3387 7.15794 16.2587 7.35627 16.1211C8.27555 15.4803 24.3713 9.6951 24.3713 9.6951C24.3713 9.6951 24.8258 9.54196 25.0938 9.64381C25.1601 9.66434 25.2198 9.70211 25.2667 9.75326C25.3136 9.80441 25.3461 9.86711 25.3608 9.93494C25.3898 10.0547 25.4019 10.178 25.3968 10.3011C25.3955 10.4077 25.3827 10.5064 25.3729 10.6613C25.2748 12.243 22.3412 24.0478 22.3412 24.0478C22.3412 24.0478 22.1657 24.7385 21.5368 24.7622C21.3823 24.7672 21.2283 24.741 21.0841 24.6852C20.9399 24.6294 20.8084 24.5452 20.6975 24.4375C19.4634 23.376 15.1981 20.5095 14.2556 19.8791C14.2343 19.8646 14.2164 19.8457 14.2031 19.8237C14.1897 19.8017 14.1813 19.7771 14.1782 19.7516C14.1651 19.6851 14.2373 19.6028 14.2373 19.6028C14.2373 19.6028 21.6643 13.0012 21.862 12.3081C21.8773 12.2544 21.8195 12.228 21.7418 12.2515C21.2485 12.4329 12.6973 17.8331 11.7535 18.4291C11.6855 18.4497 11.6137 18.4541 11.5438 18.4419Z" fill="white"/>
</g>
<defs>
<linearGradient id="paint0_linear_12_44" x1="17" y1="34" x2="17" y2="0" gradientUnits="userSpaceOnUse">
<stop stop-color="#1D93D2"/>
<stop offset="1" stop-color="#38B0E3"/>
</linearGradient>
<clipPath id="clip0_12_44">
<rect width="34" height="34" fill="white"/>
</clipPath>
</defs>
</svg>
