<svg width="34" height="34" viewBox="0 0 34 34" fill="none" xmlns="http://www.w3.org/2000/svg">
<path d="M17 34C26.3888 34 34 26.3888 34 17C34 7.61116 26.3888 0 17 0C7.61116 0 0 7.61116 0 17C0 26.3888 7.61116 34 17 34Z" fill="white"/>
<g clip-path="url(#clip0_12_47)">
<g clip-path="url(#clip1_12_47)">
<path d="M30.0106 10.9042C29.7045 9.76043 28.8056 8.86163 27.6619 8.55546C25.591 8 17.283 8 17.283 8C17.283 8 8.97512 8 6.90416 8.55546C5.76043 8.86163 4.86163 9.76043 4.55546 10.9042C4 12.9751 4 17.2986 4 17.2986C4 17.2986 4 21.622 4.55546 23.693C4.86163 24.8367 5.76043 25.7355 6.90416 26.0416C8.97512 26.5971 17.283 26.5971 17.283 26.5971C17.283 26.5971 25.591 26.5971 27.6619 26.0416C28.8056 25.7355 29.7045 24.8367 30.0106 23.693C30.5661 21.622 30.5661 17.2986 30.5661 17.2986C30.5661 17.2986 30.5639 12.9751 30.0106 10.9042Z" fill="#FF0000"/>
<path d="M14.6238 21.2834L21.5255 17.2989L14.6238 13.3144V21.2834Z" fill="white"/>
</g>
</g>
<defs>
<clipPath id="clip0_12_47">
<rect width="26.566" height="18.5971" fill="white" transform="translate(4 8)"/>
</clipPath>
<clipPath id="clip1_12_47">
<rect width="26.566" height="18.5971" fill="white" transform="translate(4 8)"/>
</clipPath>
</defs>
</svg>
