<svg width="34" height="34" viewBox="0 0 34 34" fill="none" xmlns="http://www.w3.org/2000/svg">
<path d="M17 34C26.3888 34 34 26.3888 34 17C34 7.61116 26.3888 0 17 0C7.61116 0 0 7.61116 0 17C0 26.3888 7.61116 34 17 34Z" fill="white"/>
<path d="M17.0066 6C12.4129 6 11.0695 6.00474 10.8083 6.0264C9.86563 6.10476 9.27903 6.25319 8.63996 6.57137C8.14746 6.81593 7.75904 7.09942 7.3757 7.4968C6.67756 8.22151 6.25445 9.11309 6.10128 10.1729C6.02682 10.6874 6.00515 10.7923 6.00075 13.4204C5.99906 14.2964 6.00075 15.4493 6.00075 16.9957C6.00075 21.5856 6.00583 22.9277 6.02783 23.1884C6.10399 24.1057 6.24785 24.6828 6.55249 25.3141C7.13469 26.5225 8.24663 27.4296 9.55659 27.7681C10.0102 27.8849 10.5111 27.9492 11.1543 27.9797C11.4268 27.9915 14.2041 28 16.9831 28C19.7621 28 22.5411 27.9966 22.8068 27.9831C23.5515 27.948 23.9839 27.89 24.462 27.7664C25.7804 27.4263 26.8721 26.5326 27.4661 25.3073C27.7648 24.6913 27.9163 24.0921 27.9848 23.2227C27.9997 23.0332 28.006 20.011 28.006 16.9928C28.006 13.9742 27.9992 10.9575 27.9843 10.768C27.9149 9.88451 27.7635 9.29046 27.4551 8.66256C27.2021 8.14857 26.9211 7.76472 26.5133 7.37224C25.7853 6.67698 24.8951 6.25387 23.8343 6.10087C23.3203 6.02657 23.2179 6.00457 20.5878 6H17.0066Z" fill="url(#paint0_radial_12_49)"/>
<path d="M17.0066 6C12.4129 6 11.0695 6.00474 10.8083 6.0264C9.86563 6.10476 9.27903 6.25319 8.63996 6.57137C8.14746 6.81593 7.75904 7.09942 7.3757 7.4968C6.67756 8.22151 6.25445 9.11309 6.10128 10.1729C6.02682 10.6874 6.00515 10.7923 6.00075 13.4204C5.99906 14.2964 6.00075 15.4493 6.00075 16.9957C6.00075 21.5856 6.00583 22.9277 6.02783 23.1884C6.10399 24.1057 6.24785 24.6828 6.55249 25.3141C7.13469 26.5225 8.24663 27.4296 9.55659 27.7681C10.0102 27.8849 10.5111 27.9492 11.1543 27.9797C11.4268 27.9915 14.2041 28 16.9831 28C19.7621 28 22.5411 27.9966 22.8068 27.9831C23.5515 27.948 23.9839 27.89 24.462 27.7664C25.7804 27.4263 26.8721 26.5326 27.4661 25.3073C27.7648 24.6913 27.9163 24.0921 27.9848 23.2227C27.9997 23.0332 28.006 20.011 28.006 16.9928C28.006 13.9742 27.9992 10.9575 27.9843 10.768C27.9149 9.88451 27.7635 9.29046 27.4551 8.66256C27.2021 8.14857 26.9211 7.76472 26.5133 7.37224C25.7853 6.67698 24.8951 6.25387 23.8343 6.10087C23.3203 6.02657 23.2179 6.00457 20.5878 6H17.0066Z" fill="url(#paint1_radial_12_49)"/>
<path d="M17.0016 8.87717C14.7954 8.87717 14.5185 8.88681 13.6519 8.92625C12.7871 8.96585 12.1968 9.10277 11.6802 9.30366C11.1459 9.51116 10.6927 9.78872 10.2411 10.2404C9.78926 10.692 9.5117 11.1452 9.30353 11.6794C9.10212 12.1961 8.96504 12.7866 8.92611 13.6511C8.88735 14.5176 8.8772 14.7947 8.8772 17.0009C8.8772 19.2072 8.88701 19.4832 8.92628 20.3498C8.96605 21.2146 9.10297 21.805 9.30369 22.3215C9.51136 22.8558 9.78892 23.309 10.2406 23.7606C10.692 24.2125 11.1453 24.4907 11.6792 24.6982C12.1961 24.8991 12.7866 25.036 13.6513 25.0756C14.5178 25.115 14.7945 25.1247 17.0006 25.1247C19.2071 25.1247 19.4831 25.115 20.3496 25.0756C21.2145 25.036 21.8055 24.8991 22.3224 24.6982C22.8565 24.4907 23.3091 24.2125 23.7604 23.7606C24.2123 23.309 24.4899 22.8558 24.6981 22.3217C24.8978 21.805 25.0349 21.2145 25.0755 20.35C25.1144 19.4834 25.1246 19.2072 25.1246 17.0009C25.1246 14.7947 25.1144 14.5178 25.0755 13.6512C25.0349 12.7864 24.8978 12.1961 24.6981 11.6795C24.4899 11.1452 24.2123 10.692 23.7604 10.2404C23.3086 9.78855 22.8567 9.51099 22.3219 9.30366C21.804 9.10277 21.2133 8.96585 20.3485 8.92625C19.4819 8.88681 19.2061 8.87717 16.9991 8.87717H17.0016ZM16.2729 10.3411C16.4892 10.3408 16.7305 10.3411 17.0016 10.3411C19.1707 10.3411 19.4278 10.3489 20.2843 10.3878C21.0764 10.4241 21.5063 10.5564 21.7926 10.6676C22.1717 10.8149 22.442 10.9909 22.7262 11.2752C23.0105 11.5595 23.1865 11.8303 23.3341 12.2094C23.4453 12.4955 23.5778 12.9253 23.6139 13.7174C23.6528 14.5738 23.6613 14.831 23.6613 16.9991C23.6613 19.1671 23.6528 19.4244 23.6139 20.2807C23.5777 21.0728 23.4453 21.5027 23.3341 21.7887C23.1869 22.1678 23.0105 22.4378 22.7262 22.7219C22.4419 23.0063 22.1719 23.1823 21.7926 23.3295C21.5066 23.4412 21.0764 23.5732 20.2843 23.6094C19.4279 23.6484 19.1707 23.6568 17.0016 23.6568C14.8324 23.6568 14.5753 23.6484 13.719 23.6094C12.9269 23.5729 12.497 23.4405 12.2105 23.3293C11.8314 23.1821 11.5606 23.0061 11.2762 22.7218C10.9919 22.4374 10.8159 22.1673 10.6683 21.788C10.5571 21.502 10.4246 21.0721 10.3886 20.2801C10.3496 19.4237 10.3418 19.1664 10.3418 16.997C10.3418 14.8277 10.3496 14.5718 10.3886 13.7154C10.4248 12.9233 10.5571 12.4934 10.6683 12.2071C10.8156 11.828 10.9919 11.5572 11.2762 11.2728C11.5606 10.9885 11.8314 10.8125 12.2105 10.6649C12.4968 10.5532 12.9269 10.4212 13.719 10.3848C14.4684 10.351 14.7588 10.3408 16.2729 10.3391V10.3411ZM21.338 11.69C20.7998 11.69 20.3632 12.1262 20.3632 12.6645C20.3632 13.2027 20.7998 13.6394 21.338 13.6394C21.8762 13.6394 22.3129 13.2027 22.3129 12.6645C22.3129 12.1263 21.8762 11.6897 21.338 11.6897V11.69ZM17.0016 12.829C14.6977 12.829 12.8297 14.697 12.8297 17.0009C12.8297 19.3049 14.6977 21.172 17.0016 21.172C19.3056 21.172 21.1729 19.3049 21.1729 17.0009C21.1729 14.697 19.3056 12.829 17.0016 12.829ZM17.0016 14.293C18.4971 14.293 19.7096 15.5053 19.7096 17.0009C19.7096 18.4964 18.4971 19.7089 17.0016 19.7089C15.506 19.7089 14.2937 18.4964 14.2937 17.0009C14.2937 15.5053 15.506 14.293 17.0016 14.293Z" fill="white"/>
<defs>
<radialGradient id="paint0_radial_12_49" cx="0" cy="0" r="1" gradientUnits="userSpaceOnUse" gradientTransform="translate(11.8454 29.6945) rotate(-90) scale(21.8036 20.2846)">
<stop stop-color="#FFDD55"/>
<stop offset="0.1" stop-color="#FFDD55"/>
<stop offset="0.5" stop-color="#FF543E"/>
<stop offset="1" stop-color="#C837AB"/>
</radialGradient>
<radialGradient id="paint1_radial_12_49" cx="0" cy="0" r="1" gradientUnits="userSpaceOnUse" gradientTransform="translate(2.31388 7.58484) rotate(78.6776) scale(9.74641 40.1852)">
<stop stop-color="#3771C8"/>
<stop offset="0.128" stop-color="#3771C8"/>
<stop offset="1" stop-color="#6600FF" stop-opacity="0"/>
</radialGradient>
</defs>
</svg>
